<svg width="34" height="34" viewBox="0 0 34 34" fill="none" xmlns="http://www.w3.org/2000/svg">
<path d="M11.9 22.3125C12.325 23.5875 13.4938 24.4375 14.875 24.4375" stroke="#E9CC6B" stroke-width="2" stroke-miterlimit="10" stroke-linecap="round" stroke-linejoin="round"/>
<path d="M13.8125 18.0625V20.1875" stroke="#E9CC6B" stroke-width="2" stroke-miterlimit="10" stroke-linecap="round" stroke-linejoin="round"/>
<path d="M20.1875 18.0625V20.1875" stroke="#E9CC6B" stroke-width="2" stroke-miterlimit="10" stroke-linecap="round" stroke-linejoin="round"/>
<path d="M19.0188 3.50623C21.4625 5.52498 22.3125 9.03123 20.825 11.9C19.4438 14.5562 16.15 15.5125 13.6 14.1312C11.475 13.0687 10.7313 10.4125 11.7938 8.28748C12.6438 6.58748 14.7688 5.94998 16.4688 6.79998C17.85 7.54373 18.3813 9.13748 17.6375 10.5187" stroke="#E9CC6B" stroke-width="2" stroke-miterlimit="10" stroke-linecap="round" stroke-linejoin="round"/>
<path d="M12.6437 7.22498C9.24375 8.60623 6.69375 11.475 5.7375 14.9812C4.25 15.1937 3.1875 16.4687 3.1875 18.0625C3.1875 19.6562 4.25 20.9312 5.7375 21.1437C7.11875 26.1375 11.5813 29.75 17 29.75C22.4187 29.75 26.8813 26.1375 28.2625 21.1437C29.75 20.9312 30.8125 19.6562 30.8125 18.0625C30.8125 16.4687 29.75 15.1937 28.2625 14.9812C27.3063 11.475 24.7563 8.60623 21.3563 7.22498" stroke="#E9CC6B" stroke-width="2" stroke-miterlimit="10" stroke-linecap="round" stroke-linejoin="round"/>
</svg>
