<svg width="26" height="32" viewBox="0 0 26 32" fill="none" xmlns="http://www.w3.org/2000/svg">
<g clip-path="url(#clip0_14_91)">
<path d="M0 19.0671C0 26.198 5.83016 32 13 32C14.7075 32.0012 16.3985 31.6674 17.9763 31.0179C19.554 30.3684 20.9876 29.4158 22.195 28.2146C23.4024 27.0135 24.3599 25.5873 25.0128 24.0177C25.6657 22.4481 26.0012 20.7658 26 19.0671C25.9998 18.925 25.943 18.7888 25.842 18.6884C25.7411 18.5879 25.6042 18.5314 25.4613 18.5312H0.538657C0.395847 18.5314 0.258935 18.5879 0.157954 18.6884C0.0569727 18.7888 0.000167715 18.925 0 19.0671ZM24.9106 19.603C24.8744 20.4072 24.7562 21.2056 24.5577 21.9861H1.4436C1.24397 21.2058 1.12527 20.4073 1.08935 19.603H24.9106ZM1.56464 22.4274H24.436C23.7071 24.8822 22.1994 27.0366 20.1383 28.5688C18.0771 30.1009 15.573 30.9286 13 30.9282C7.59823 30.9282 3.02472 27.336 1.56464 22.4274Z" fill="#DB5C96"/>
<path d="M16.7478 28.5515C17.9634 28.03 19.044 27.2406 19.9081 26.2428C19.9465 26.1984 20.0011 26.171 20.0598 26.1666C20.1185 26.1623 20.1766 26.1813 20.2212 26.2195C20.2658 26.2577 20.2933 26.312 20.2977 26.3704C20.3021 26.4288 20.283 26.4865 20.2446 26.5309C19.3353 27.5795 18.1986 28.4092 16.9202 28.9575C16.8925 28.9691 16.8628 28.9751 16.8327 28.9751C16.7815 28.9753 16.7319 28.9578 16.6922 28.9256C16.6525 28.8935 16.6252 28.8487 16.6149 28.7989C16.6046 28.749 16.612 28.6971 16.6357 28.652C16.6595 28.607 16.6982 28.5714 16.7453 28.5515H16.7478Z" fill="#DB5C96"/>
<path d="M23.981 6.94495C25.0235 5.84988 24.7567 4.23405 24.7446 4.17101C24.7284 4.0777 24.6876 3.99034 24.6263 3.91783C24.5651 3.84531 24.4857 3.79024 24.3961 3.7582C24.3065 3.72617 24.21 3.71832 24.1164 3.73546C24.0228 3.75261 23.9354 3.79412 23.8631 3.85579L21.4981 5.87383L22.2148 2.33831C22.234 2.244 22.2272 2.1463 22.1953 2.05548C22.1634 1.96466 22.1075 1.88407 22.0334 1.82216C21.9594 1.76025 21.87 1.71931 21.7746 1.70363C21.6791 1.68796 21.5812 1.69813 21.4911 1.73309C21.4202 1.76019 19.7402 2.42657 19.2731 4.02096C19.0589 4.74849 19.1325 5.53024 19.4899 6.3536C19.0284 6.28166 18.5564 6.31596 18.1103 6.45384C17.3327 6.70602 16.737 7.28855 16.3403 8.18314C16.2197 8.46326 16.1171 8.75069 16.033 9.0437C16.033 9.05 16.0292 9.05694 16.0273 9.06324C15.4347 11.0769 15.0938 14.4535 15.1584 16.2289C15.1678 16.5208 15.2602 16.8041 15.4248 17.0459C15.5895 17.2877 15.8197 17.4781 16.0887 17.595C16.2883 17.6832 16.5041 17.7289 16.7224 17.7293C17.0916 17.7289 17.4486 17.5977 17.7294 17.3592C18.5475 16.6695 19.6705 15.5101 20.661 14.3331C21.4284 13.4202 22.0589 12.5679 22.4842 11.8681C22.6424 11.6125 22.7843 11.3472 22.9088 11.0737C23.3061 10.1798 23.3371 9.35009 23.0013 8.60806C22.8593 8.2998 22.6636 8.01893 22.4233 7.7784C23.0628 7.6397 23.5837 7.36231 23.981 6.94495ZM20.3929 7.76453L20.4094 7.77273L20.4284 7.78218L20.4455 7.79038H20.4506L20.4626 7.79479L20.4842 7.80299L20.4956 7.8074C20.5171 7.81433 21.6363 8.18945 22.0222 9.05252C22.2275 9.51086 22.1958 10.0303 21.9246 10.6406C21.846 10.8132 21.7582 10.9816 21.6616 11.145L20.7649 10.669C20.7392 10.6543 20.7107 10.6449 20.6813 10.6414C20.6518 10.6379 20.6219 10.6402 20.5934 10.6484C20.5649 10.6565 20.5383 10.6703 20.5153 10.6888C20.4922 10.7074 20.4731 10.7304 20.4591 10.7564C20.4451 10.7824 20.4365 10.811 20.4338 10.8404C20.4311 10.8698 20.4344 10.8994 20.4434 10.9275C20.4524 10.9556 20.467 10.9817 20.4863 11.0041C20.5056 11.0265 20.5292 11.0448 20.5558 11.058L21.4309 11.5226C20.9595 12.2388 20.4443 12.9256 19.8885 13.5791L18.1641 12.7892C18.1107 12.7647 18.0497 12.7623 17.9945 12.7826C17.9393 12.8028 17.8944 12.8441 17.8698 12.8973C17.8452 12.9504 17.8428 13.0112 17.8632 13.0661C17.8835 13.121 17.925 13.1656 17.9785 13.1901L19.5919 13.9328C18.7047 14.9648 17.7427 15.9464 17.0342 16.5434C16.9647 16.6023 16.88 16.6405 16.7896 16.6535C16.6993 16.6666 16.6071 16.6541 16.5236 16.6175C16.4401 16.5808 16.3687 16.5215 16.3176 16.4463C16.2664 16.3711 16.2376 16.283 16.2345 16.1923C16.1756 14.579 16.4671 11.5819 16.9829 9.64577L18.7034 10.4143C18.7319 10.4272 18.7628 10.4338 18.7941 10.4338C18.8448 10.4338 18.894 10.4165 18.9334 10.3848C18.9729 10.3531 19.0002 10.3089 19.0109 10.2596C19.0216 10.2103 19.0149 10.1588 18.9921 10.1138C18.9692 10.0687 18.9315 10.0328 18.8853 10.0121L17.1058 9.21707C17.1676 9.0144 17.2406 8.8153 17.3245 8.62067C17.5957 8.0104 17.9582 7.63718 18.4385 7.47957C19.3448 7.17885 20.3821 7.75444 20.3929 7.76138V7.76453ZM20.905 3.38232L20.417 5.78683C20.2155 5.256 20.1768 4.7693 20.3036 4.33114C20.4166 3.96684 20.624 3.63853 20.905 3.37917V3.38232ZM23.6008 5.49305C23.5245 5.76175 23.385 6.00853 23.1939 6.21301C22.9404 6.47906 22.587 6.65579 22.1337 6.74321L23.6008 5.49305Z" fill="#DB5C96"/>
<path d="M9.75411 9.55814C8.95816 7.60377 7.15208 6.31703 5.31114 6.31703H5.25981C5.25411 6.3019 5.24777 6.28614 5.24143 6.27101C4.87958 5.39028 3.78706 4.99689 2.80164 5.39407C2.34802 5.572 1.97348 5.90569 1.74587 6.33469C1.63207 6.54449 1.56589 6.77656 1.55198 7.01456C1.53808 7.25256 1.57679 7.4907 1.66539 7.7122C1.73916 7.89421 1.84664 8.0608 1.98224 8.20332C1.19074 9.49636 1.0773 11.2402 1.71102 12.8011C2.50759 14.7555 4.28896 16.0397 6.13941 16.0429C6.42711 16.5138 6.96767 16.7868 7.55195 16.7868C7.79972 16.7864 8.04505 16.7382 8.27439 16.6449C9.17933 16.2805 9.64638 15.321 9.31558 14.5115C9.30607 14.4895 9.29657 14.4674 9.28643 14.4453C10.2573 13.1296 10.4474 11.2597 9.75411 9.55814ZM8.21735 14.0545C8.12481 14.1556 8.07474 14.2882 8.07746 14.4249C8.08017 14.5616 8.13545 14.6921 8.23193 14.7895C8.26794 14.8256 8.29638 14.8685 8.31558 14.9156C8.42141 15.1748 8.21672 15.5127 7.87198 15.6533C7.52724 15.7938 7.14004 15.693 7.03421 15.4332C7.02711 15.4137 7.02139 15.3937 7.0171 15.3733C6.98831 15.2455 6.91339 15.1326 6.80652 15.056C6.69965 14.9794 6.56826 14.9445 6.43725 14.9579C4.91634 15.1111 3.38719 14.0589 2.71165 12.4002C2.14131 11.0031 2.31368 9.44214 3.14828 8.42397C3.20014 8.36074 3.23679 8.28656 3.25545 8.20709C3.27411 8.12761 3.27428 8.04495 3.25594 7.96541C3.2376 7.88586 3.20124 7.81154 3.14963 7.7481C3.09803 7.68466 3.03254 7.63378 2.95816 7.59935C2.82759 7.54353 2.72334 7.44026 2.66666 7.31061C2.63832 7.23183 2.62722 7.14794 2.63411 7.06455C2.64099 6.98115 2.6657 6.90019 2.70658 6.82706C2.8156 6.62463 2.9942 6.46798 3.20975 6.38575C3.63687 6.21301 4.11089 6.34414 4.2446 6.67134C4.26999 6.73594 4.28185 6.80502 4.27946 6.87435C4.27736 6.95259 4.29254 7.03035 4.32393 7.10212C4.35532 7.1739 4.40216 7.23795 4.46113 7.28977C4.5201 7.34159 4.58978 7.37991 4.66526 7.40202C4.74073 7.42414 4.82017 7.42952 4.89796 7.41779C5.03806 7.39661 5.17957 7.38608 5.32128 7.38626C6.72939 7.38626 8.128 8.4101 8.75918 9.95847C9.35487 11.4312 9.14321 13.0382 8.21735 14.0545Z" fill="#DB5C96"/>
<path d="M7.54119 13.3547C7.51089 13.3697 7.47746 13.3775 7.44359 13.3774C7.3936 13.3771 7.34515 13.3601 7.3061 13.3291C7.26705 13.298 7.2397 13.2547 7.22847 13.2063C7.21725 13.1578 7.22281 13.107 7.24426 13.062C7.26571 13.0171 7.30178 12.9807 7.34664 12.9587C7.64652 12.8115 7.87545 12.5519 7.9832 12.2369C8.09095 11.9219 8.06873 11.5773 7.92141 11.2786C7.89665 11.2262 7.89362 11.1661 7.91298 11.1115C7.93235 11.0568 7.97254 11.0119 8.02489 10.9865C8.07724 10.9611 8.13753 10.9572 8.19275 10.9756C8.24797 10.9941 8.29369 11.0334 8.32002 11.0851C8.4184 11.2853 8.47617 11.5028 8.49001 11.7253C8.50386 11.9477 8.47352 12.1707 8.40072 12.3814C8.32792 12.5922 8.2141 12.7866 8.06575 12.9536C7.91739 13.1206 7.73742 13.2569 7.53612 13.3547H7.54119Z" fill="#DB5C96"/>
<path d="M12.4924 16.6897C12.4923 16.8911 12.5522 17.0881 12.6646 17.2556C12.777 17.4231 12.9369 17.5537 13.1239 17.6309C13.3109 17.708 13.5168 17.7282 13.7154 17.689C13.9139 17.6497 14.0964 17.5527 14.2395 17.4103C14.3827 17.2679 14.4802 17.0864 14.5197 16.8888C14.5591 16.6912 14.5388 16.4865 14.4613 16.3004C14.3837 16.1143 14.2525 15.9553 14.084 15.8435C13.9156 15.7317 13.7177 15.672 13.5152 15.6722C13.2441 15.6727 12.9842 15.78 12.7925 15.9707C12.6008 16.1615 12.4929 16.42 12.4924 16.6897ZM12.936 16.6897C12.936 16.5756 12.97 16.464 13.0338 16.3692C13.0975 16.2743 13.1881 16.2003 13.2941 16.1567C13.4001 16.1131 13.5167 16.1017 13.6292 16.124C13.7417 16.1463 13.845 16.2013 13.9261 16.282C14.0072 16.3628 14.0623 16.4656 14.0846 16.5776C14.1069 16.6895 14.0954 16.8055 14.0514 16.9109C14.0074 17.0163 13.933 17.1063 13.8375 17.1696C13.7421 17.233 13.6299 17.2667 13.5152 17.2666C13.3615 17.2664 13.2142 17.2055 13.1056 17.0974C12.997 16.9892 12.936 16.8426 12.936 16.6897Z" fill="#DB5C96"/>
<path d="M8.35741 3.71961C8.35741 3.4845 8.28734 3.25466 8.15607 3.05916C8.0248 2.86365 7.83821 2.71125 7.61989 2.62122C7.40158 2.53119 7.16133 2.50757 6.92952 2.55335C6.69771 2.59913 6.48475 2.71224 6.31755 2.8784C6.15035 3.04456 6.03642 3.25631 5.99016 3.48687C5.9439 3.71743 5.96739 3.95647 6.05766 4.17375C6.14792 4.39104 6.30091 4.57682 6.49729 4.70763C6.69367 4.83843 6.92463 4.90837 7.16096 4.90862C7.47806 4.90862 7.78219 4.78339 8.00653 4.56045C8.23087 4.3375 8.35707 4.03507 8.35741 3.71961ZM7.91381 3.71961C7.91393 3.86746 7.86999 4.01204 7.78754 4.13505C7.70509 4.25807 7.58782 4.354 7.45058 4.41073C7.31333 4.46745 7.16225 4.48242 7.01645 4.45374C6.87065 4.42507 6.73667 4.35403 6.63145 4.24961C6.52622 4.1452 6.45448 4.01209 6.42528 3.86711C6.39609 3.72214 6.41076 3.57181 6.46743 3.43512C6.5241 3.29844 6.62024 3.18154 6.74368 3.0992C6.86712 3.01686 7.01234 2.97278 7.16096 2.97253C7.36035 2.97237 7.55165 3.05096 7.69282 3.19105C7.83399 3.33113 7.91347 3.52125 7.91381 3.71961Z" fill="#DB5C96"/>
<path d="M25.6217 13.5583C25.6218 13.3046 25.5463 13.0565 25.4046 12.8455C25.263 12.6345 25.0616 12.4701 24.826 12.373C24.5903 12.2759 24.3311 12.2505 24.0809 12.3C23.8308 12.3496 23.6011 12.4719 23.4208 12.6514C23.2406 12.8309 23.1179 13.0595 23.0683 13.3084C23.0187 13.5573 23.0445 13.8152 23.1423 14.0496C23.2402 14.2839 23.4057 14.484 23.6179 14.6248C23.8301 14.7655 24.0796 14.8404 24.3346 14.84C24.6759 14.8392 25.003 14.7038 25.2442 14.4636C25.4855 14.2234 25.6212 13.8978 25.6217 13.5583ZM25.1781 13.5583C25.1781 13.7247 25.1284 13.8874 25.0355 14.0257C24.9425 14.1641 24.8104 14.2719 24.6558 14.3355C24.5012 14.3991 24.3311 14.4156 24.1671 14.383C24.003 14.3504 23.8524 14.2701 23.7343 14.1523C23.6161 14.0345 23.5357 13.8845 23.5033 13.7212C23.4709 13.5579 23.488 13.3888 23.5522 13.2351C23.6165 13.0815 23.7252 12.9503 23.8644 12.8581C24.0037 12.7659 24.1673 12.7169 24.3346 12.7173C24.5584 12.718 24.7729 12.8068 24.931 12.9645C25.0891 13.1221 25.1779 13.3356 25.1781 13.5583Z" fill="#DB5C96"/>
<path d="M1.61343 16.2515C1.61331 16.3928 1.65531 16.531 1.73413 16.6486C1.81295 16.7661 1.92504 16.8578 2.05623 16.9119C2.18741 16.9661 2.3318 16.9803 2.47112 16.9528C2.61044 16.9253 2.73843 16.8574 2.83891 16.7575C2.93939 16.6576 3.00783 16.5303 3.03559 16.3918C3.06334 16.2532 3.04916 16.1095 2.99484 15.979C2.94051 15.8484 2.84848 15.7368 2.7304 15.6583C2.61231 15.5798 2.47347 15.5379 2.33143 15.5379C2.14117 15.5381 1.95874 15.6133 1.82414 15.7471C1.68954 15.8808 1.61377 16.0623 1.61343 16.2515ZM2.05703 16.2515C2.05703 16.1976 2.07313 16.1448 2.10328 16.0999C2.13343 16.055 2.17628 16.02 2.22642 15.9993C2.27656 15.9787 2.33174 15.9733 2.38496 15.9838C2.43819 15.9943 2.48709 16.0203 2.52546 16.0585C2.56384 16.0967 2.58997 16.1453 2.60056 16.1983C2.61114 16.2512 2.60571 16.3061 2.58494 16.356C2.56417 16.4059 2.529 16.4485 2.48388 16.4785C2.43875 16.5085 2.3857 16.5245 2.33143 16.5245C2.25866 16.5245 2.18886 16.4958 2.1374 16.4446C2.08594 16.3934 2.05703 16.3239 2.05703 16.2515Z" fill="#DB5C96"/>
<path d="M17.9582 2.06785C17.9582 1.92655 17.9161 1.78843 17.8371 1.67095C17.7582 1.55347 17.646 1.46192 17.5148 1.40787C17.3836 1.35383 17.2392 1.33972 17.0999 1.36733C16.9606 1.39495 16.8326 1.46304 16.7323 1.563C16.6319 1.66295 16.5635 1.79029 16.5359 1.92889C16.5083 2.06749 16.5226 2.21113 16.577 2.34164C16.6315 2.47215 16.7236 2.58366 16.8417 2.66207C16.9599 2.74048 17.0988 2.78227 17.2408 2.78214C17.4311 2.78181 17.6134 2.70643 17.7479 2.57253C17.8824 2.43863 17.958 2.25713 17.9582 2.06785ZM17.5146 2.06785C17.5146 2.12187 17.4985 2.17467 17.4683 2.21958C17.4381 2.26448 17.3952 2.29947 17.345 2.32011C17.2949 2.34076 17.2397 2.34613 17.1864 2.33554C17.1332 2.32496 17.0843 2.2989 17.0459 2.26066C17.0076 2.22242 16.9815 2.17372 16.971 2.12072C16.9605 2.06773 16.966 2.01282 16.9869 1.96295C17.0077 1.91308 17.043 1.87049 17.0882 1.84057C17.1334 1.81065 17.1865 1.79475 17.2408 1.79487C17.3135 1.79504 17.3831 1.82387 17.4344 1.87505C17.4858 1.92622 17.5146 1.99556 17.5146 2.06785Z" fill="#DB5C96"/>
<path d="M13.6641 9.84814C14.6388 8.56582 15.7028 6.59569 15.2091 4.49632C14.7998 2.74116 13.3796 1.24764 10.9899 0.0567387C10.9255 0.0248325 10.8554 0.00604552 10.7837 0.00148232C10.7119 -0.00308088 10.64 0.00667182 10.5721 0.030167C10.5042 0.0536621 10.4417 0.0904255 10.3883 0.138295C10.3349 0.186165 10.2916 0.244176 10.2611 0.308916C9.56401 1.78415 8.94931 3.24237 9.12042 4.85945C9.31433 6.71169 10.5323 8.41389 12.8441 10.0638C12.8881 10.0951 12.9366 10.1195 12.988 10.1363C12.9107 11.3076 12.6781 12.31 12.3067 13.0602C12.2938 13.0862 12.2862 13.1145 12.2843 13.1434C12.2823 13.1724 12.2862 13.2014 12.2955 13.2289C12.3049 13.2563 12.3196 13.2817 12.3388 13.3035C12.358 13.3253 12.3813 13.3431 12.4075 13.3559C12.4381 13.3707 12.4717 13.3785 12.5057 13.3786C12.5471 13.3786 12.5876 13.367 12.6228 13.3453C12.6579 13.3236 12.6863 13.2926 12.7047 13.2557C13.1096 12.4361 13.36 11.3499 13.4366 10.0864C13.4933 10.0526 13.5432 10.0086 13.5837 9.95658C13.6103 9.92253 13.6382 9.8866 13.666 9.8494L13.6641 9.84814ZM13.4271 8.27708C13.3276 6.74573 13.0006 5.23267 12.5152 4.13255C12.5039 4.1055 12.4872 4.08097 12.4663 4.06039C12.4453 4.03981 12.4204 4.02359 12.393 4.01268C12.3657 4.00178 12.3364 3.9964 12.307 3.99687C12.2775 3.99734 12.2484 4.00364 12.2215 4.01541C12.1945 4.02718 12.1701 4.04418 12.1498 4.06541C12.1295 4.08665 12.1137 4.11169 12.1032 4.13909C12.0927 4.16649 12.0878 4.19569 12.0888 4.22498C12.0898 4.25427 12.0967 4.28308 12.109 4.3097C12.6325 5.49746 12.9639 7.1883 13.0101 8.84889C11.2617 7.50226 10.3378 6.15816 10.1901 4.74723C10.0678 3.57587 10.4747 2.43099 10.9994 1.27286C12.7909 2.26077 13.8543 3.42519 14.1616 4.7403C14.4595 6.01001 14.019 7.26522 13.4271 8.27708Z" fill="#DB5C96"/>
</g>
<defs>
<clipPath id="clip0_14_91">
<rect width="26" height="32" fill="white"/>
</clipPath>
</defs>
</svg>
