<svg width="34" height="34" viewBox="0 0 34 34" fill="none" xmlns="http://www.w3.org/2000/svg">
<g clip-path="url(#clip0_14_112)">
<mask id="mask0_14_112" style="mask-type:luminance" maskUnits="userSpaceOnUse" x="0" y="0" width="34" height="34">
<path d="M34 0H0V34H34V0Z" fill="white"/>
</mask>
<g mask="url(#mask0_14_112)">
<path d="M31.875 14.1667H31.1667V12.75C31.1667 12.1864 30.9428 11.6459 30.5443 11.2474C30.1457 10.8489 29.6052 10.625 29.0417 10.625H27.625V9.20833C27.625 8.64478 27.4011 8.10425 27.0026 7.70574C26.6041 7.30724 26.0635 7.08333 25.5 7.08333H23.375C22.8114 7.08333 22.2709 7.30724 21.8724 7.70574C21.4739 8.10425 21.25 8.64478 21.25 9.20833V14.1667H12.75V9.20833C12.75 8.64478 12.5261 8.10425 12.1276 7.70574C11.7291 7.30724 11.1885 7.08333 10.625 7.08333H8.5C7.93645 7.08333 7.39592 7.30724 6.9974 7.70574C6.59888 8.10425 6.375 8.64478 6.375 9.20833V10.625H4.95833C4.39475 10.625 3.85425 10.8489 3.45573 11.2474C3.05722 11.6459 2.83333 12.1864 2.83333 12.75V14.1667H2.125C1.56141 14.1667 1.02091 14.3906 0.622398 14.7891C0.223883 15.1876 0 15.7281 0 16.2917V17.7083C0 18.2719 0.223883 18.8124 0.622398 19.2109C1.02091 19.6094 1.56141 19.8333 2.125 19.8333H2.83333V21.25C2.83333 21.8135 3.05722 22.3541 3.45573 22.7526C3.85425 23.1511 4.39475 23.375 4.95833 23.375H6.375V24.7917C6.375 25.3552 6.59888 25.8957 6.9974 26.2943C7.39592 26.6928 7.93645 26.9167 8.5 26.9167H10.625C11.1885 26.9167 11.7291 26.6928 12.1276 26.2943C12.5261 25.8957 12.75 25.3552 12.75 24.7917V19.8333H21.25V24.7917C21.25 25.3552 21.4739 25.8957 21.8724 26.2943C22.2709 26.6928 22.8114 26.9167 23.375 26.9167H25.5C26.0635 26.9167 26.6041 26.6928 27.0026 26.2943C27.4011 25.8957 27.625 25.3552 27.625 24.7917V23.375H29.0417C29.6052 23.375 30.1457 23.1511 30.5443 22.7526C30.9428 22.3541 31.1667 21.8135 31.1667 21.25V19.8333H31.875C32.4385 19.8333 32.9791 19.6094 33.3776 19.2109C33.7761 18.8124 34 18.2719 34 17.7083V16.2917C34 15.7281 33.7761 15.1876 33.3776 14.7891C32.9791 14.3906 32.4385 14.1667 31.875 14.1667ZM2.125 18.4167C1.93714 18.4167 1.75697 18.342 1.62413 18.2092C1.4913 18.0764 1.41667 17.8962 1.41667 17.7083V16.2917C1.41667 16.1038 1.4913 15.9236 1.62413 15.7908C1.75697 15.658 1.93714 15.5833 2.125 15.5833H2.83333V18.4167H2.125ZM4.95833 21.9583C4.77047 21.9583 4.5903 21.8837 4.45746 21.7509C4.32463 21.618 4.25 21.4378 4.25 21.25V12.75C4.25 12.5621 4.32463 12.3819 4.45746 12.2491C4.5903 12.1163 4.77047 12.0417 4.95833 12.0417H6.375V21.9583H4.95833ZM11.3333 24.7917C11.3333 24.9795 11.2587 25.1597 11.1259 25.2925C10.993 25.4253 10.8128 25.5 10.625 25.5H8.5C8.31215 25.5 8.13195 25.4253 7.99914 25.2925C7.86632 25.1597 7.79167 24.9795 7.79167 24.7917V9.20833C7.79167 9.02048 7.86632 8.84028 7.99914 8.70747C8.13195 8.57466 8.31215 8.5 8.5 8.5H10.625C10.8128 8.5 10.993 8.57466 11.1259 8.70747C11.2587 8.84028 11.3333 9.02048 11.3333 9.20833V24.7917ZM12.75 18.4167V15.5833H21.25V18.4167H12.75ZM26.2083 24.7917C26.2083 24.9795 26.1337 25.1597 26.0009 25.2925C25.868 25.4253 25.6878 25.5 25.5 25.5H23.375C23.1871 25.5 23.0069 25.4253 22.8741 25.2925C22.7413 25.1597 22.6667 24.9795 22.6667 24.7917V9.20833C22.6667 9.02048 22.7413 8.84028 22.8741 8.70747C23.0069 8.57466 23.1871 8.5 23.375 8.5H25.5C25.6878 8.5 25.868 8.57466 26.0009 8.70747C26.1337 8.84028 26.2083 9.02048 26.2083 9.20833V24.7917ZM29.75 21.25C29.75 21.4378 29.6753 21.618 29.5425 21.7509C29.4097 21.8837 29.2295 21.9583 29.0417 21.9583H27.625V12.0417H29.0417C29.2295 12.0417 29.4097 12.1163 29.5425 12.2491C29.6753 12.3819 29.75 12.5621 29.75 12.75V21.25ZM32.5833 17.7083C32.5833 17.8962 32.5087 18.0764 32.3759 18.2092C32.243 18.342 32.0629 18.4167 31.875 18.4167H31.1667V15.5833H31.875C32.0629 15.5833 32.243 15.658 32.3759 15.7908C32.5087 15.9236 32.5833 16.1038 32.5833 16.2917V17.7083Z" fill="#E2A767"/>
</g>
</g>
<defs>
<clipPath id="clip0_14_112">
<rect width="34" height="34" fill="white"/>
</clipPath>
</defs>
</svg>
