<svg width="28" height="28" viewBox="0 0 28 28" fill="none" xmlns="http://www.w3.org/2000/svg">
<path d="M8.12886 27.8148C8.02436 27.8148 7.91925 27.812 7.81414 27.8074C4.39094 27.6439 1.50406 24.8655 1.37836 21.6138C1.31382 19.933 1.95186 18.3071 3.1754 17.035C4.47915 15.6799 6.2848 14.903 8.12978 14.903C9.17567 14.903 10.2 15.155 11.1187 15.6354C12.2344 14.7158 13.6629 14.1629 15.2184 14.1629C15.9335 14.1629 16.6272 14.2766 17.2895 14.5016L17.5766 9.20329C17.6193 8.67804 17.3744 8.19828 16.9383 7.93396L15.9753 7.35063C15.4052 7.00548 14.7171 6.93172 14.0873 7.14778C14.0572 7.15823 14.0289 7.17298 14.0013 7.18865C13.4557 7.49723 12.8026 7.50706 12.251 7.21632C11.6993 6.92557 11.3381 6.38065 11.285 5.75951C11.2788 5.68851 11.2601 5.61997 11.2287 5.55574C10.4561 3.96062 11.009 2.05079 12.515 1.1137L13.3101 0.618875C14.3102 -0.00411062 15.6041 -0.000729859 16.6048 0.627173C22.8263 4.52859 26.654 12.3256 26.5944 20.9752C26.5931 21.1279 26.5357 21.2745 26.4324 21.387C22.5344 25.6277 17.7201 27.3221 12.1246 26.4311C10.9847 27.3304 9.58567 27.8148 8.12886 27.8148ZM8.12978 16.1327C6.61734 16.1327 5.13472 16.7722 4.06147 17.8879C3.07182 18.9166 2.55549 20.2231 2.60712 21.5665C2.70701 24.1522 5.11812 26.4477 7.87253 26.5793C9.22546 26.6466 10.5289 26.1945 11.5471 25.3136C11.6867 25.1929 11.8732 25.1412 12.0549 25.1729C17.3304 26.0928 21.6867 24.6375 25.365 20.729C25.3515 12.5976 21.758 5.31017 15.9514 1.66876C15.3459 1.28888 14.5637 1.28612 13.9595 1.66231L13.1644 2.15713C12.1938 2.76137 11.8373 3.99197 12.3352 5.01973C12.432 5.21981 12.4907 5.43341 12.5097 5.6547C12.5273 5.86001 12.6419 6.03274 12.8241 6.12863C13.0061 6.22482 13.2136 6.22144 13.3924 6.12002C13.4945 6.06224 13.591 6.01798 13.6881 5.98479C14.6639 5.65009 15.7295 5.76442 16.6122 6.2992L17.5751 6.88223C18.4126 7.38966 18.8828 8.31107 18.8032 9.28658L18.4704 15.4393C18.4593 15.6468 18.344 15.8342 18.1639 15.9384C17.9844 16.042 17.7635 16.0478 17.5784 15.9544C16.8433 15.5816 16.0494 15.3926 15.2184 15.3926C12.3367 15.3926 9.99228 17.7373 9.99228 20.619C9.99228 20.9586 9.7169 21.2337 9.3776 21.2337C9.03829 21.2337 8.76291 20.9583 8.76291 20.619C8.76291 19.0819 9.3026 17.6691 10.2025 16.5593C9.55155 16.2787 8.84743 16.1327 8.12978 16.1327Z" fill="#8B5DCA"/>
</svg>
