<svg width="32" height="32" viewBox="0 0 32 32" fill="none" xmlns="http://www.w3.org/2000/svg">
<path d="M29.3334 30.3333H2.66669C2.12002 30.3333 1.66669 29.88 1.66669 29.3333C1.66669 28.7866 2.12002 28.3333 2.66669 28.3333H29.3334C29.88 28.3333 30.3334 28.7866 30.3334 29.3333C30.3334 29.88 29.88 30.3333 29.3334 30.3333Z" fill="#60C7C3"/>
<path d="M27.8534 30.3333C27.3068 30.3333 26.8534 29.88 26.8534 29.3333V17.3333C26.8534 15.68 25.3068 14.3333 23.4134 14.3333H8.58679C6.69346 14.3333 5.14679 15.68 5.14679 17.3333V29.3333C5.14679 29.88 4.69346 30.3333 4.14679 30.3333C3.60012 30.3333 3.14679 29.88 3.14679 29.3333V17.3333C3.14679 14.5733 5.58679 12.3333 8.58679 12.3333H23.4001C26.4001 12.3333 28.8401 14.5733 28.8401 17.3333V29.3333C28.8534 29.88 28.4001 30.3333 27.8534 30.3333Z" fill="#60C7C3"/>
<path d="M24.5868 14.3334C24.0401 14.3334 23.5868 13.88 23.5868 13.3334V9.56002C23.5868 8.52002 22.5868 7.66669 21.3734 7.66669H10.6401C9.41339 7.66669 8.42672 8.52002 8.42672 9.56002V13.3334C8.42672 13.88 7.97339 14.3334 7.42672 14.3334C6.88006 14.3334 6.41339 13.88 6.41339 13.3334V9.56002C6.41339 7.41335 8.30672 5.66669 10.6267 5.66669H21.3601C23.6801 5.66669 25.5734 7.41335 25.5734 9.56002V13.3334C25.5868 13.88 25.1334 14.3334 24.5868 14.3334Z" fill="#60C7C3"/>
<path d="M23.1067 23.6666C21.56 23.6666 20.3067 22.4133 20.3067 20.8666V20.4533C20.3067 20.0133 19.9467 19.6533 19.5067 19.6533C19.0667 19.6533 18.7067 20.0133 18.7067 20.4533V20.8666C18.7067 22.4133 17.4533 23.6666 15.9067 23.6666C14.36 23.6666 13.1066 22.4133 13.1066 20.8666V20.4533C13.1066 20.0133 12.7466 19.6533 12.3066 19.6533C11.8666 19.6533 11.5066 20.0133 11.5066 20.4533V20.8666C11.5066 22.4133 10.2533 23.6666 8.7066 23.6666C7.15994 23.6666 5.9066 22.4133 5.9066 20.8666V20.4266C5.9066 20 5.55994 19.64 5.11994 19.6266H4.6266C4.07994 19.6133 3.6266 19.16 3.63994 18.6133C3.65327 18.0666 4.09327 17.6266 4.63994 17.6266H4.65327H5.1466C6.6666 17.6533 7.9066 18.9066 7.9066 20.4266V20.8666C7.9066 21.3066 8.2666 21.6666 8.7066 21.6666C9.1466 21.6666 9.5066 21.3066 9.5066 20.8666V20.4533C9.5066 18.9066 10.7599 17.6533 12.3066 17.6533C13.8533 17.6533 15.1067 18.9066 15.1067 20.4533V20.8666C15.1067 21.3066 15.4667 21.6666 15.9067 21.6666C16.3467 21.6666 16.7067 21.3066 16.7067 20.8666V20.4533C16.7067 18.9066 17.96 17.6533 19.5067 17.6533C21.0533 17.6533 22.3067 18.9066 22.3067 20.4533V20.8666C22.3067 21.3066 22.6667 21.6666 23.1067 21.6666C23.5467 21.6666 23.9067 21.3066 23.9067 20.8666V20.4533C23.9067 18.9066 25.16 17.6533 26.7067 17.6533H27.3067C27.8533 17.6533 28.3067 18.1066 28.3067 18.6533C28.3067 19.2 27.8533 19.6533 27.3067 19.6533H26.7067C26.2667 19.6533 25.9067 20.0133 25.9067 20.4533V20.8666C25.9067 22.4133 24.6533 23.6666 23.1067 23.6666Z" fill="#60C7C3"/>
<path d="M10.6667 7.66667C10.12 7.66667 9.66669 7.21333 9.66669 6.66667V4C9.66669 3.45333 10.12 3 10.6667 3C11.2134 3 11.6667 3.45333 11.6667 4V6.66667C11.6667 7.21333 11.2134 7.66667 10.6667 7.66667Z" fill="#60C7C3"/>
<path d="M21.3333 7.66667C20.7866 7.66667 20.3333 7.21333 20.3333 6.66667V4C20.3333 3.45333 20.7866 3 21.3333 3C21.88 3 22.3333 3.45333 22.3333 4V6.66667C22.3333 7.21333 21.88 7.66667 21.3333 7.66667Z" fill="#60C7C3"/>
<path d="M16 7.66669C15.4533 7.66669 15 7.21335 15 6.66669V2.66669C15 2.12002 15.4533 1.66669 16 1.66669C16.5467 1.66669 17 2.12002 17 2.66669V6.66669C17 7.21335 16.5467 7.66669 16 7.66669Z" fill="#60C7C3"/>
</svg>
