<svg width="32" height="32" viewBox="0 0 32 32" fill="none" xmlns="http://www.w3.org/2000/svg">
<g clip-path="url(#clip0_16_10)">
<path fill-rule="evenodd" clip-rule="evenodd" d="M26.5333 5.77689e-10H21.3333C20.5969 5.77689e-10 20 0.596953 20 1.33333C20 2.06971 20.5969 2.66667 21.3333 2.66667H23.4477L19.302 6.81233C17.9942 5.88105 16.3944 5.33333 14.6666 5.33333C10.2483 5.33333 6.66663 8.91505 6.66663 13.3333C6.66663 17.2989 9.55195 20.5905 13.3377 21.2235C13.3348 21.2597 13.3333 21.2964 13.3333 21.3333V24H12C11.2636 24 10.6666 24.5969 10.6666 25.3333C10.6666 26.0697 11.2636 26.6667 12 26.6667H13.3333V29.3333C13.3333 30.0697 13.9302 30.6667 14.6666 30.6667C15.403 30.6667 16 30.0697 16 29.3333V26.6667H17.3333C18.0697 26.6667 18.6666 26.0697 18.6666 25.3333C18.6666 24.5969 18.0697 24 17.3333 24H16V21.3333C16 21.2964 15.9985 21.2597 15.9956 21.2235C19.7813 20.5905 22.6666 17.2989 22.6666 13.3333C22.6666 11.6056 22.1189 10.0057 21.1876 8.69796L25.3333 4.55228V6.66667C25.3333 7.40304 25.9302 8 26.6666 8C27.403 8 28 7.40304 28 6.66667V1.46667C28 1.44372 27.9994 1.42089 27.9984 1.39821C28.016 1.03569 27.8862 0.667379 27.6094 0.390524C27.3326 0.11367 26.9642 -0.0159815 26.6017 0.00156944C26.579 0.000526959 26.5562 5.77689e-10 26.5333 5.77689e-10ZM14.6666 18.6667C17.6121 18.6667 20 16.2788 20 13.3333C20 10.3878 17.6121 8 14.6666 8C11.7211 8 9.33329 10.3878 9.33329 13.3333C9.33329 16.2788 11.7211 18.6667 14.6666 18.6667Z" fill="#ED6335"/>
</g>
<defs>
<clipPath id="clip0_16_10">
<rect width="32" height="32" fill="white"/>
</clipPath>
</defs>
</svg>
