<svg width="60" height="60" viewBox="0 0 60 60" fill="none" xmlns="http://www.w3.org/2000/svg">
<path d="M30 21C18 21 18 39 30 39C42 39 42 21 30 21Z" fill="#B4D3EF" stroke="#B4D3EF" stroke-width="3"/>
<path d="M30 2C-7.33331 2 -7.33336 58 30 58C67.3334 58 67.3333 2 30 2Z" stroke="#B4D3EF" stroke-width="3"/>
<path d="M49.5 9.5003C36.5 11.0002 28.5 7 12 8" stroke="#B4D3EF" stroke-width="3"/>
<path d="M48.5 51.5003C35.5 53.0002 27 49.5 10.5 50.5" stroke="#B4D3EF" stroke-width="3"/>
<path d="M55 16.5001C37.5 18 27 14 6 15" stroke="#B4D3EF" stroke-width="3"/>
<path d="M55 16.5001C37.5 18 27 14 6 15" stroke="#B4D3EF" stroke-width="3"/>
<path d="M54 44.6627C36.5 46.1626 26 42.1626 5 43.1626" stroke="#B4D3EF" stroke-width="3"/>
<path d="M57 23.9999C35 24.5 25 21 3 21.9999" stroke="#B4D3EF" stroke-width="3"/>
<path d="M57 38.1807C35 38.6808 25 35.1808 3 36.1806" stroke="#B4D3EF" stroke-width="3"/>
<path d="M58 30.9999C32.5 32 22.5 28 2.5 29" stroke="#B4D3EF" stroke-width="3"/>
</svg>
