<svg width="32" height="32" viewBox="0 0 32 32" fill="none" xmlns="http://www.w3.org/2000/svg">
<path d="M13.37 30C10.6088 30.0921 7.91154 29.1568 5.80017 27.375C3.68881 25.5931 2.31342 23.0915 1.94013 20.3541C1.56685 17.6167 2.22221 14.8381 3.7794 12.556C5.3366 10.2739 7.68492 8.65054 10.37 8C10.5503 7.95218 10.7403 7.95572 10.9187 8.01022C11.097 8.06473 11.2566 8.16803 11.3793 8.30845C11.5021 8.44888 11.5831 8.62083 11.6133 8.80488C11.6434 8.98893 11.6215 9.17775 11.55 9.35C11.1173 10.4137 10.8965 11.5517 10.9 12.7C10.929 15.1587 11.9316 17.5055 13.6879 19.2263C15.4443 20.9471 17.8112 21.9013 20.27 21.88C21.1036 21.8793 21.9337 21.7717 22.74 21.56C22.9191 21.5134 23.1076 21.5174 23.2846 21.5716C23.4616 21.6258 23.62 21.728 23.7423 21.8669C23.8647 22.0058 23.946 22.1759 23.9774 22.3583C24.0088 22.5407 23.9889 22.7282 23.92 22.9C23.0794 25.0071 21.6229 26.8118 19.7409 28.0784C17.8588 29.345 15.6385 30.0147 13.37 30ZM9.10999 10.64C7.5832 11.3952 6.29662 12.5602 5.39417 14.0048C4.49172 15.4495 4.009 17.1167 3.99999 18.82C4.02901 21.2787 5.03157 23.6255 6.78795 25.3463C8.54432 27.0671 10.9112 28.0213 13.37 28C14.9123 28.0123 16.4337 27.6425 17.7982 26.9236C19.1628 26.2047 20.328 25.159 21.19 23.88C20.89 23.88 20.59 23.88 20.29 23.88C17.3042 23.904 14.4306 22.7443 12.2978 20.6547C10.165 18.565 8.94692 15.7156 8.90999 12.73C8.90987 12.0286 8.97684 11.3287 9.10999 10.64ZM27.85 17C27.6825 17.0008 27.5174 16.9596 27.37 16.88L26 16.12L24.63 16.88C24.4686 16.9677 24.2862 17.0092 24.1028 17.0001C23.9194 16.9909 23.742 16.9314 23.5901 16.8281C23.4383 16.7248 23.3178 16.5817 23.2419 16.4145C23.1661 16.2472 23.1377 16.0623 23.16 15.88L23.43 14.21L22.28 13C22.1508 12.8688 22.0603 12.7045 22.0186 12.5252C21.9768 12.3459 21.9853 12.1585 22.0432 11.9838C22.1011 11.809 22.2062 11.6536 22.3468 11.5347C22.4874 11.4158 22.658 11.3381 22.84 11.31L24.39 11.07L25.09 9.58C25.1707 9.4082 25.2987 9.26294 25.459 9.16119C25.6193 9.05945 25.8052 9.00541 25.995 9.00541C26.1848 9.00541 26.3707 9.05945 26.531 9.16119C26.6912 9.26294 26.8192 9.4082 26.9 9.58L27.6 11.07L29.15 11.31C29.3328 11.3366 29.5046 11.4132 29.6465 11.5315C29.7884 11.6498 29.8948 11.805 29.9538 11.98C30.0128 12.155 30.0222 12.343 29.981 12.523C29.9397 12.7031 29.8494 12.8682 29.72 13L28.57 14.18L28.84 15.85C28.8634 15.9941 28.8549 16.1415 28.8152 16.282C28.7755 16.4224 28.7056 16.5525 28.6103 16.663C28.515 16.7736 28.3967 16.8619 28.2636 16.9219C28.1305 16.9818 27.9859 17.0119 27.84 17.01L27.85 17ZM26 14C26.1684 14.0022 26.3335 14.0469 26.48 14.13H26.53V13.99C26.5045 13.8355 26.5157 13.6772 26.5626 13.5279C26.6095 13.3785 26.6908 13.2422 26.8 13.13L26.94 12.99H26.79C26.6186 12.9683 26.4557 12.9025 26.3172 12.7991C26.1788 12.6957 26.0695 12.5582 26 12.4C25.9301 12.5474 25.8253 12.6756 25.6946 12.7732C25.5638 12.8708 25.4112 12.9349 25.25 12.96H25.1L25.24 13.1C25.3492 13.2122 25.4305 13.3485 25.4774 13.4979C25.5243 13.6472 25.5355 13.8055 25.51 13.96V14.1H25.56C25.6971 14.0336 25.8476 13.9994 26 14ZM20.85 10C20.6825 10.0008 20.5174 9.95958 20.37 9.88L19 9.12L17.63 9.88C17.4686 9.96768 17.2862 10.0092 17.1028 10.0001C16.9194 9.99092 16.742 9.93143 16.5901 9.82813C16.4383 9.72483 16.3178 9.58171 16.2419 9.41446C16.1661 9.24721 16.1377 9.0623 16.16 8.88L16.43 7.21L15.28 6C15.1508 5.86882 15.0603 5.70453 15.0186 5.52521C14.9768 5.3459 14.9853 5.15854 15.0432 4.98377C15.1011 4.809 15.2062 4.65361 15.3468 4.53472C15.4874 4.41584 15.658 4.33808 15.84 4.31L17.39 4.07L18.09 2.58C18.1707 2.4082 18.2987 2.26294 18.459 2.16119C18.6193 2.05944 18.8052 2.00541 18.995 2.00541C19.1848 2.00541 19.3707 2.05944 19.531 2.16119C19.6912 2.26294 19.8192 2.4082 19.9 2.58L20.6 4.07L22.15 4.31C22.3328 4.33656 22.5046 4.41322 22.6465 4.53148C22.7884 4.64975 22.8948 4.805 22.9538 4.98002C23.0128 5.15504 23.0222 5.343 22.981 5.52303C22.9397 5.70307 22.8494 5.86816 22.72 6L21.57 7.17L21.84 8.84C21.8634 8.98407 21.8549 9.13151 21.8152 9.27196C21.7755 9.41241 21.7056 9.54248 21.6103 9.65302C21.515 9.76357 21.3967 9.85191 21.2636 9.91186C21.1305 9.9718 20.9859 10.0019 20.84 10H20.85ZM19 7C19.1684 7.00223 19.3335 7.04694 19.48 7.13H19.53V6.99C19.5045 6.83552 19.5157 6.67723 19.5626 6.52785C19.6095 6.37848 19.6908 6.24221 19.8 6.13L19.93 6H19.78C19.6093 5.97572 19.4478 5.90772 19.3111 5.80259C19.1744 5.69746 19.0672 5.55877 19 5.4C18.9301 5.54744 18.8253 5.67556 18.6946 5.77317C18.5638 5.87078 18.4112 5.93492 18.25 5.96H18.1L18.24 6.1C18.3492 6.21221 18.4305 6.34848 18.4774 6.49785C18.5243 6.64723 18.5355 6.80552 18.51 6.96V7.1H18.56C18.6971 7.03358 18.8476 6.99938 19 7Z" fill="#60C7C3"/>
</svg>
