<svg width="34" height="34" viewBox="0 0 34 34" fill="none" xmlns="http://www.w3.org/2000/svg">
<path d="M26.5058 9.77774C26.5058 4.4403 22.1793 0.11335 16.8416 0.11335C15.5696 0.108528 14.3092 0.356743 13.134 0.843552C11.9587 1.33036 10.892 2.04604 9.99596 2.94895C9.48102 3.47041 9.02704 4.04872 8.64276 4.67275C5.84014 9.22206 7.25613 15.1816 11.8054 17.9842L12.3051 18.2947L11.751 18.4975C5.7939 20.6694 1.82882 26.3339 1.82678 32.6746V32.6882C1.83086 33.1842 2.23569 33.5833 2.73118 33.5792L2.73164 33.579C3.22724 33.5759 3.6264 33.1704 3.62266 32.6744C3.6408 25.3794 9.54614 19.4682 16.8416 19.4425C22.1791 19.4425 26.5058 15.1152 26.5058 9.77774ZM16.7807 17.2544C12.6796 17.2285 9.37592 13.8824 9.40198 9.78114C9.42794 5.67949 12.7741 2.37605 16.8755 2.40212C20.9584 2.42818 24.2543 5.74545 24.2542 9.82851V9.87543C24.2282 13.9768 20.8821 17.2805 16.7807 17.2544ZM24.2745 19.2802C23.7006 18.9612 22.9765 19.1686 22.6574 19.7427C22.339 20.3169 22.546 21.0408 23.1202 21.3594C27.2362 23.6471 29.7899 27.9859 29.7903 32.6951C29.7903 33.353 30.3239 33.8867 30.9823 33.8867C31.6406 33.8867 32.1736 33.353 32.1736 32.6951C32.1697 27.1217 29.1469 21.9878 24.2745 19.2802Z" fill="#DB5C96"/>
</svg>
